<mxfile host="app.diagrams.net" modified="2022-09-13T15:33:28.934Z" agent="5.0 (Macintosh; Intel Mac OS X 10_15_7) AppleWebKit/605.1.15 (KHTML, like Gecko) Version/16.1 Safari/605.1.15" etag="OliEBRe5gJWE7jC0bDfh" version="20.3.0" type="github">
  <diagram id="XnEugMDfW9nt01OwP3_5" name="Page-1">
    <mxGraphModel dx="1773" dy="620" grid="1" gridSize="10" guides="1" tooltips="1" connect="1" arrows="1" fold="1" page="1" pageScale="1" pageWidth="827" pageHeight="1169" math="0" shadow="0">
      <root>
        <mxCell id="0" />
        <mxCell id="1" parent="0" />
        <mxCell id="A6VERJNFXDKj5nQ8tuVU-5" style="edgeStyle=orthogonalEdgeStyle;rounded=0;orthogonalLoop=1;jettySize=auto;html=1;exitX=1;exitY=0.25;exitDx=0;exitDy=0;entryX=0;entryY=0.5;entryDx=0;entryDy=0;entryPerimeter=0;" edge="1" parent="1" source="A6VERJNFXDKj5nQ8tuVU-4" target="A6VERJNFXDKj5nQ8tuVU-2">
          <mxGeometry relative="1" as="geometry" />
        </mxCell>
        <mxCell id="A6VERJNFXDKj5nQ8tuVU-11" value="1" style="edgeLabel;html=1;align=center;verticalAlign=middle;resizable=0;points=[];" vertex="1" connectable="0" parent="A6VERJNFXDKj5nQ8tuVU-5">
          <mxGeometry x="-0.4" y="2" relative="1" as="geometry">
            <mxPoint as="offset" />
          </mxGeometry>
        </mxCell>
        <mxCell id="A6VERJNFXDKj5nQ8tuVU-4" value="" style="rounded=1;whiteSpace=wrap;html=1;" vertex="1" parent="1">
          <mxGeometry x="-130" y="119.75" width="280" height="200.25" as="geometry" />
        </mxCell>
        <mxCell id="A6VERJNFXDKj5nQ8tuVU-1" value="" style="shape=mxgraph.signs.transportation.car_3;html=1;pointerEvents=1;fillColor=#000000;strokeColor=none;verticalLabelPosition=bottom;verticalAlign=top;align=center;" vertex="1" parent="1">
          <mxGeometry x="30" y="240" width="203.21" height="78" as="geometry" />
        </mxCell>
        <mxCell id="A6VERJNFXDKj5nQ8tuVU-6" style="edgeStyle=orthogonalEdgeStyle;rounded=0;orthogonalLoop=1;jettySize=auto;html=1;exitX=0.5;exitY=1;exitDx=0;exitDy=0;exitPerimeter=0;" edge="1" parent="1" source="A6VERJNFXDKj5nQ8tuVU-2" target="A6VERJNFXDKj5nQ8tuVU-3">
          <mxGeometry relative="1" as="geometry" />
        </mxCell>
        <mxCell id="A6VERJNFXDKj5nQ8tuVU-12" value="2" style="edgeLabel;html=1;align=center;verticalAlign=middle;resizable=0;points=[];" vertex="1" connectable="0" parent="A6VERJNFXDKj5nQ8tuVU-6">
          <mxGeometry x="-0.0959" y="-1" relative="1" as="geometry">
            <mxPoint as="offset" />
          </mxGeometry>
        </mxCell>
        <mxCell id="A6VERJNFXDKj5nQ8tuVU-2" value="" style="outlineConnect=0;dashed=0;verticalLabelPosition=bottom;verticalAlign=top;align=center;html=1;shape=mxgraph.aws3.camera;fillColor=#5294CF;gradientColor=none;" vertex="1" parent="1">
          <mxGeometry x="250" y="110" width="79.5" height="79.5" as="geometry" />
        </mxCell>
        <mxCell id="A6VERJNFXDKj5nQ8tuVU-7" style="edgeStyle=orthogonalEdgeStyle;rounded=0;orthogonalLoop=1;jettySize=auto;html=1;exitX=0;exitY=0.5;exitDx=0;exitDy=0;exitPerimeter=0;entryX=0.984;entryY=0.641;entryDx=0;entryDy=0;entryPerimeter=0;" edge="1" parent="1" source="A6VERJNFXDKj5nQ8tuVU-3" target="A6VERJNFXDKj5nQ8tuVU-1">
          <mxGeometry relative="1" as="geometry" />
        </mxCell>
        <mxCell id="A6VERJNFXDKj5nQ8tuVU-13" value="3A" style="edgeLabel;html=1;align=center;verticalAlign=middle;resizable=0;points=[];" vertex="1" connectable="0" parent="A6VERJNFXDKj5nQ8tuVU-7">
          <mxGeometry x="-0.218" relative="1" as="geometry">
            <mxPoint as="offset" />
          </mxGeometry>
        </mxCell>
        <mxCell id="A6VERJNFXDKj5nQ8tuVU-9" style="edgeStyle=orthogonalEdgeStyle;rounded=0;orthogonalLoop=1;jettySize=auto;html=1;exitX=1;exitY=0.5;exitDx=0;exitDy=0;exitPerimeter=0;entryX=0.158;entryY=0.986;entryDx=0;entryDy=0;entryPerimeter=0;" edge="1" parent="1" source="A6VERJNFXDKj5nQ8tuVU-3" target="A6VERJNFXDKj5nQ8tuVU-8">
          <mxGeometry relative="1" as="geometry" />
        </mxCell>
        <mxCell id="A6VERJNFXDKj5nQ8tuVU-14" value="3B" style="edgeLabel;html=1;align=center;verticalAlign=middle;resizable=0;points=[];" vertex="1" connectable="0" parent="A6VERJNFXDKj5nQ8tuVU-9">
          <mxGeometry x="-0.2998" y="1" relative="1" as="geometry">
            <mxPoint as="offset" />
          </mxGeometry>
        </mxCell>
        <mxCell id="A6VERJNFXDKj5nQ8tuVU-3" value="" style="outlineConnect=0;dashed=0;verticalLabelPosition=bottom;verticalAlign=top;align=center;html=1;shape=mxgraph.aws3.car;fillColor=#5294CF;gradientColor=none;" vertex="1" parent="1">
          <mxGeometry x="320" y="240.5" width="79.5" height="79.5" as="geometry" />
        </mxCell>
        <mxCell id="A6VERJNFXDKj5nQ8tuVU-10" style="edgeStyle=orthogonalEdgeStyle;rounded=0;orthogonalLoop=1;jettySize=auto;html=1;entryX=0.84;entryY=0.87;entryDx=0;entryDy=0;entryPerimeter=0;" edge="1" parent="1" source="A6VERJNFXDKj5nQ8tuVU-8" target="A6VERJNFXDKj5nQ8tuVU-3">
          <mxGeometry relative="1" as="geometry">
            <Array as="points">
              <mxPoint x="500" y="310" />
            </Array>
          </mxGeometry>
        </mxCell>
        <mxCell id="A6VERJNFXDKj5nQ8tuVU-15" value="4" style="edgeLabel;html=1;align=center;verticalAlign=middle;resizable=0;points=[];" vertex="1" connectable="0" parent="A6VERJNFXDKj5nQ8tuVU-10">
          <mxGeometry x="-0.0785" y="-1" relative="1" as="geometry">
            <mxPoint as="offset" />
          </mxGeometry>
        </mxCell>
        <mxCell id="A6VERJNFXDKj5nQ8tuVU-8" value="" style="html=1;verticalLabelPosition=bottom;align=center;labelBackgroundColor=#ffffff;verticalAlign=top;strokeWidth=2;strokeColor=#0080F0;shadow=0;dashed=0;shape=mxgraph.ios7.icons.cloud;" vertex="1" parent="1">
          <mxGeometry x="430" y="60" width="120" height="70" as="geometry" />
        </mxCell>
        <mxCell id="A6VERJNFXDKj5nQ8tuVU-20" style="edgeStyle=orthogonalEdgeStyle;rounded=0;orthogonalLoop=1;jettySize=auto;html=1;exitX=1;exitY=0.5;exitDx=0;exitDy=0;" edge="1" parent="1" source="A6VERJNFXDKj5nQ8tuVU-16" target="A6VERJNFXDKj5nQ8tuVU-17">
          <mxGeometry relative="1" as="geometry" />
        </mxCell>
        <mxCell id="A6VERJNFXDKj5nQ8tuVU-16" value="RAW Data" style="rounded=1;whiteSpace=wrap;html=1;" vertex="1" parent="1">
          <mxGeometry x="120" y="470" width="120" height="60" as="geometry" />
        </mxCell>
        <mxCell id="A6VERJNFXDKj5nQ8tuVU-21" style="edgeStyle=orthogonalEdgeStyle;rounded=0;orthogonalLoop=1;jettySize=auto;html=1;exitX=1;exitY=0.5;exitDx=0;exitDy=0;" edge="1" parent="1" source="A6VERJNFXDKj5nQ8tuVU-17" target="A6VERJNFXDKj5nQ8tuVU-18">
          <mxGeometry relative="1" as="geometry" />
        </mxCell>
        <mxCell id="A6VERJNFXDKj5nQ8tuVU-25" style="edgeStyle=orthogonalEdgeStyle;rounded=0;orthogonalLoop=1;jettySize=auto;html=1;exitX=0.5;exitY=1;exitDx=0;exitDy=0;entryX=0;entryY=0.5;entryDx=0;entryDy=0;" edge="1" parent="1" source="A6VERJNFXDKj5nQ8tuVU-17" target="A6VERJNFXDKj5nQ8tuVU-23">
          <mxGeometry relative="1" as="geometry" />
        </mxCell>
        <mxCell id="A6VERJNFXDKj5nQ8tuVU-17" value="Pre-Process" style="rounded=1;whiteSpace=wrap;html=1;" vertex="1" parent="1">
          <mxGeometry x="294" y="470" width="120" height="60" as="geometry" />
        </mxCell>
        <mxCell id="A6VERJNFXDKj5nQ8tuVU-22" style="edgeStyle=orthogonalEdgeStyle;rounded=0;orthogonalLoop=1;jettySize=auto;html=1;exitX=1;exitY=0.5;exitDx=0;exitDy=0;entryX=0;entryY=0.5;entryDx=0;entryDy=0;" edge="1" parent="1" source="A6VERJNFXDKj5nQ8tuVU-18" target="A6VERJNFXDKj5nQ8tuVU-19">
          <mxGeometry relative="1" as="geometry" />
        </mxCell>
        <mxCell id="A6VERJNFXDKj5nQ8tuVU-24" style="edgeStyle=orthogonalEdgeStyle;rounded=0;orthogonalLoop=1;jettySize=auto;html=1;exitX=0.5;exitY=1;exitDx=0;exitDy=0;entryX=0.5;entryY=0;entryDx=0;entryDy=0;" edge="1" parent="1" source="A6VERJNFXDKj5nQ8tuVU-18" target="A6VERJNFXDKj5nQ8tuVU-23">
          <mxGeometry relative="1" as="geometry" />
        </mxCell>
        <mxCell id="A6VERJNFXDKj5nQ8tuVU-18" value="Decision Control" style="rounded=1;whiteSpace=wrap;html=1;" vertex="1" parent="1">
          <mxGeometry x="470" y="470" width="120" height="60" as="geometry" />
        </mxCell>
        <mxCell id="A6VERJNFXDKj5nQ8tuVU-19" value="Execute Action" style="rounded=1;whiteSpace=wrap;html=1;" vertex="1" parent="1">
          <mxGeometry x="640" y="470" width="120" height="60" as="geometry" />
        </mxCell>
        <mxCell id="A6VERJNFXDKj5nQ8tuVU-27" style="edgeStyle=orthogonalEdgeStyle;rounded=0;orthogonalLoop=1;jettySize=auto;html=1;exitX=1;exitY=0.5;exitDx=0;exitDy=0;entryX=0;entryY=0.5;entryDx=0;entryDy=0;" edge="1" parent="1" source="A6VERJNFXDKj5nQ8tuVU-23" target="A6VERJNFXDKj5nQ8tuVU-26">
          <mxGeometry relative="1" as="geometry" />
        </mxCell>
        <mxCell id="A6VERJNFXDKj5nQ8tuVU-28" style="edgeStyle=orthogonalEdgeStyle;rounded=0;orthogonalLoop=1;jettySize=auto;html=1;exitX=0;exitY=0.75;exitDx=0;exitDy=0;entryX=0.5;entryY=1;entryDx=0;entryDy=0;dashed=1;" edge="1" parent="1" source="A6VERJNFXDKj5nQ8tuVU-23" target="A6VERJNFXDKj5nQ8tuVU-16">
          <mxGeometry relative="1" as="geometry" />
        </mxCell>
        <mxCell id="A6VERJNFXDKj5nQ8tuVU-23" value="Data Finder" style="rounded=1;whiteSpace=wrap;html=1;" vertex="1" parent="1">
          <mxGeometry x="470" y="600" width="120" height="60" as="geometry" />
        </mxCell>
        <mxCell id="A6VERJNFXDKj5nQ8tuVU-26" value="Upload" style="rounded=1;whiteSpace=wrap;html=1;" vertex="1" parent="1">
          <mxGeometry x="640" y="600" width="120" height="60" as="geometry" />
        </mxCell>
        <mxCell id="A6VERJNFXDKj5nQ8tuVU-30" style="edgeStyle=orthogonalEdgeStyle;rounded=0;orthogonalLoop=1;jettySize=auto;html=1;exitX=0;exitY=0.5;exitDx=0;exitDy=0;entryX=0.5;entryY=1;entryDx=0;entryDy=0;" edge="1" parent="1" source="A6VERJNFXDKj5nQ8tuVU-29" target="A6VERJNFXDKj5nQ8tuVU-23">
          <mxGeometry relative="1" as="geometry" />
        </mxCell>
        <mxCell id="A6VERJNFXDKj5nQ8tuVU-29" value="Request" style="rounded=1;whiteSpace=wrap;html=1;" vertex="1" parent="1">
          <mxGeometry x="640" y="670" width="120" height="60" as="geometry" />
        </mxCell>
      </root>
    </mxGraphModel>
  </diagram>
</mxfile>
